<svg width="485" height="515" viewBox="0 0 485 515" fill="none" xmlns="http://www.w3.org/2000/svg">
<path d="M283.486 502.775C285.112 501.13 285.069 472.099 283.439 470.797C282.792 470.28 277.505 469.595 271.691 469.274C181.626 464.306 104.392 400.473 81.7455 312.286C76.6111 292.293 75.1457 280.332 75.1457 258.419C75.1457 236.777 76.5782 225.003 81.6373 205.063C99.2635 135.593 151.49 79.594 219.373 57.3788C236.6 51.7414 262.385 47.2416 277.464 47.2416C280.155 47.2416 282.865 46.7267 283.486 46.0975C285.068 44.4959 285.068 15.6649 283.486 14.0633C281.097 11.6447 256.765 13.5466 235.642 17.8031C172.309 30.5658 115.686 69.5416 79.9921 124.944C39.4118 187.93 29.8652 267.66 54.3703 338.927C75.2805 399.74 118.837 449.674 175.837 478.18C194.099 487.312 205.145 491.486 223.808 496.306C246.526 502.173 280.449 505.85 283.486 502.775ZM158.051 411.663C160.27 410.184 177.25 389.016 177.25 387.729C177.25 386.984 172.27 381.166 166.184 374.801C154.315 362.389 146.981 352.623 140.302 340.336C117.495 298.38 113.055 250.411 127.838 205.683C139.32 170.943 162.548 140.132 192.315 120.159C222.127 100.154 254.634 90.9663 290.738 92.34C324.794 93.6356 357.081 105.313 383.494 125.887C386.53 128.252 389.646 130.187 390.418 130.187C392.192 130.187 410.819 107.681 410.819 105.538C410.819 102.163 388.72 87.0541 370.792 78.1728C340.928 63.3785 310.158 56.7884 276.656 58.0114C197.825 60.8888 129.216 109.818 99.4292 184.402C97.6208 188.93 94.7097 197.783 92.96 204.076C72.9577 276.008 93.5085 352.147 146.936 404.051C155.667 412.534 156.2 412.898 158.051 411.663ZM219.253 382.611C223.087 375.408 226.224 368.95 226.224 368.26C226.224 367.571 222.516 364.585 217.983 361.624C198.574 348.945 185.062 333.85 174.947 313.546C161.037 285.625 158.303 252.423 167.409 221.994C170.541 211.528 178.683 195.324 185.514 185.961C195.992 171.598 213.23 156.811 228.628 148.975C235.94 145.254 251.702 139.959 260.844 138.153C270.949 136.156 292.492 135.93 302.511 137.716C310.983 139.227 324.819 143.578 333.079 147.33C337.801 149.475 339.375 149.819 340.44 148.942C342.564 147.191 355.352 121.589 354.665 120.462C353.679 118.847 339.547 112.563 329.823 109.416C260.916 87.1137 186.181 116.096 149.383 179.389C140.971 193.858 134.885 209.839 130.904 227.911C129.076 236.209 128.806 240.162 128.823 258.419C128.84 276.496 129.13 280.711 130.923 288.928C137.861 320.716 150.737 345.336 171.983 367.433C176.693 372.332 183.149 378.445 186.33 381.018C194.727 387.811 208.455 396.308 210.511 395.986C211.711 395.798 214.533 391.48 219.253 382.611ZM284.045 368.935C284.359 368.106 284.616 360.865 284.616 352.844C284.616 342.315 284.289 338 283.439 337.321C282.792 336.803 279.295 336.127 275.669 335.818C266.35 335.023 259.07 332.875 249.298 328.04C214.591 310.864 198.181 270.367 210.759 232.932C220.283 204.586 246.564 183.663 275.963 181.022C279.427 180.711 282.792 180.033 283.439 179.517C285.069 178.216 285.112 149.185 283.486 147.539C280.88 144.901 261.339 147.539 247.886 152.338C219.618 162.43 197.681 181.638 184.665 207.696C156.845 263.389 178.911 330.663 234.23 358.807C245.147 364.362 256.115 367.784 269.547 369.826C270.842 370.023 274.505 370.242 277.687 370.314C282.176 370.414 283.601 370.105 284.045 368.935Z" fill="black"/>
</svg>
