<svg width="425" height="304" viewBox="0 0 425 304" fill="none" xmlns="http://www.w3.org/2000/svg">
<style>
  @keyframes bounce {
    0%, 100% { transform: translateY(0); }
    50% { transform: translateY(-24px); }
  }
  .dot1 { animation: bounce 1.2s ease-in-out infinite; }
  .dot2 { animation: bounce 1.2s ease-in-out 0.2s infinite; }
  .dot3 { animation: bounce 1.2s ease-in-out 0.4s infinite; }
</style>
<path d="M37 186.056V265L54 255.949V176L37 186.056Z" fill="#F4B544"/>
<path d="M40.6868 258.494C36.8175 261.152 35.8358 266.444 38.4941 270.313C41.1524 274.182 46.444 275.164 50.3132 272.506L45.5 265.5L40.6868 258.494ZM111 220.5V212H108.361L106.187 213.494L111 220.5ZM45.5 265.5L50.3132 272.506L115.813 227.506L111 220.5L106.187 213.494L40.6868 258.494L45.5 265.5ZM111 220.5C111 229 111.001 229 111.002 229C111.003 229 111.005 229 111.008 229C111.011 229 111.014 229 111.018 229C111.022 229 111.026 229 111.032 229C111.037 229 111.043 229 111.049 229C111.056 229 111.063 229 111.071 229C111.079 229 111.088 229 111.097 229C111.106 229 111.116 229 111.126 229C111.137 229 111.148 229 111.16 229C111.171 229 111.184 229 111.197 229C111.21 229 111.223 229 111.238 229C111.252 229 111.267 229 111.283 229C111.298 229 111.314 229 111.331 229C111.348 229 111.366 229 111.384 229C111.402 229 111.421 229 111.44 229C111.459 229 111.479 229 111.5 229C111.521 229 111.542 229 111.564 229C111.586 229 111.608 229 111.631 229C111.654 229 111.678 229 111.703 229C111.727 229 111.752 229 111.778 229C111.803 229 111.829 229 111.856 229C111.883 229 111.91 229 111.939 229C111.967 229 111.995 229 112.025 229C112.054 229 112.084 229 112.114 229C112.145 229 112.176 229 112.208 229C112.239 229 112.272 229 112.304 229C112.337 229 112.371 229 112.405 229C112.439 229 112.474 229 112.509 229C112.544 229 112.58 229 112.617 229C112.653 229 112.69 229 112.728 229C112.766 229 112.804 229 112.843 229C112.882 229 112.921 229 112.961 229C113.001 229 113.042 229 113.083 229C113.125 229 113.166 229 113.209 229C113.251 229 113.294 229 113.338 229C113.381 229 113.425 229 113.47 229C113.515 229 113.56 229 113.606 229C113.652 229 113.698 229 113.745 229C113.792 229 113.84 229 113.888 229C113.936 229 113.985 229 114.034 229C114.084 229 114.134 229 114.184 229C114.234 229 114.285 229 114.337 229C114.389 229 114.441 229 114.493 229C114.546 229 114.599 229 114.653 229C114.707 229 114.761 229 114.816 229C114.871 229 114.927 229 114.983 229C115.039 229 115.096 229 115.153 229C115.21 229 115.268 229 115.326 229C115.384 229 115.443 229 115.502 229C115.562 229 115.622 229 115.682 229C115.742 229 115.803 229 115.865 229C115.927 229 115.989 229 116.051 229C116.114 229 116.177 229 116.241 229C116.304 229 116.369 229 116.433 229C116.498 229 116.564 229 116.629 229C116.695 229 116.762 229 116.829 229C116.895 229 116.963 229 117.031 229C117.099 229 117.167 229 117.236 229C117.305 229 117.375 229 117.445 229C117.515 229 117.586 229 117.657 229C117.728 229 117.8 229 117.872 229C117.944 229 118.017 229 118.09 229C118.163 229 118.237 229 118.311 229C118.385 229 118.46 229 118.535 229C118.61 229 118.686 229 118.762 229C118.839 229 118.916 229 118.993 229C119.07 229 119.148 229 119.226 229C119.305 229 119.383 229 119.463 229C119.542 229 119.622 229 119.702 229C119.782 229 119.863 229 119.945 229C120.026 229 120.108 229 120.19 229C120.272 229 120.355 229 120.438 229C120.522 229 120.606 229 120.69 229C120.774 229 120.859 229 120.944 229C121.029 229 121.115 229 121.201 229C121.288 229 121.374 229 121.462 229C121.549 229 121.636 229 121.725 229C121.813 229 121.901 229 121.991 229C122.08 229 122.169 229 122.259 229C122.349 229 122.44 229 122.531 229C122.622 229 122.714 229 122.806 229C122.898 229 122.99 229 123.083 229C123.176 229 123.269 229 123.363 229C123.457 229 123.551 229 123.646 229C123.741 229 123.836 229 123.932 229C124.028 229 124.124 229 124.22 229C124.317 229 124.414 229 124.512 229C124.609 229 124.707 229 124.806 229C124.904 229 125.003 229 125.103 229C125.202 229 125.302 229 125.402 229C125.502 229 125.603 229 125.704 229C125.805 229 125.907 229 126.009 229C126.111 229 126.214 229 126.317 229C126.42 229 126.523 229 126.627 229C126.731 229 126.835 229 126.94 229C127.045 229 127.15 229 127.255 229C127.361 229 127.467 229 127.573 229C127.68 229 127.787 229 127.894 229C128.002 229 128.109 229 128.218 229C128.326 229 128.434 229 128.543 229C128.652 229 128.762 229 128.872 229C128.982 229 129.092 229 129.203 229C129.314 229 129.425 229 129.536 229C129.648 229 129.76 229 129.872 229C129.985 229 130.098 229 130.211 229C130.324 229 130.438 229 130.552 229C130.666 229 130.781 229 130.896 229C131.011 229 131.126 229 131.242 229C131.357 229 131.473 229 131.59 229C131.707 229 131.824 229 131.941 229C132.058 229 132.176 229 132.294 229C132.412 229 132.531 229 132.65 229C132.769 229 132.888 229 133.008 229C133.128 229 133.248 229 133.368 229C133.489 229 133.61 229 133.731 229C133.853 229 133.974 229 134.096 229C134.218 229 134.341 229 134.464 229C134.587 229 134.71 229 134.834 229C134.957 229 135.081 229 135.206 229C135.33 229 135.455 229 135.58 229C135.705 229 135.831 229 135.957 229C136.083 229 136.209 229 136.336 229C136.463 229 136.59 229 136.717 229C136.844 229 136.972 229 137.1 229C137.229 229 137.357 229 137.486 229C137.615 229 137.744 229 137.874 229C138.004 229 138.134 229 138.264 229C138.394 229 138.525 229 138.656 229C138.787 229 138.919 229 139.051 229C139.182 229 139.315 229 139.447 229C139.58 229 139.713 229 139.846 229C139.979 229 140.113 229 140.247 229C140.381 229 140.515 229 140.65 229C140.784 229 140.919 229 141.055 229C141.19 229 141.326 229 141.462 229C141.598 229 141.734 229 141.871 229C142.007 229 142.145 229 142.282 229C142.419 229 142.557 229 142.695 229C142.833 229 142.972 229 143.11 229C143.249 229 143.388 229 143.528 229C143.667 229 143.807 229 143.947 229C144.087 229 144.227 229 144.368 229C144.509 229 144.65 229 144.791 229C144.933 229 145.074 229 145.216 229C145.358 229 145.501 229 145.643 229C145.786 229 145.929 229 146.072 229C146.216 229 146.359 229 146.503 229C146.647 229 146.792 229 146.936 229C147.081 229 147.226 229 147.371 229C147.516 229 147.661 229 147.807 229C147.953 229 148.099 229 148.246 229C148.392 229 148.539 229 148.686 229C148.833 229 148.98 229 149.128 229C149.276 229 149.424 229 149.572 229C149.72 229 149.869 229 150.017 229C150.166 229 150.315 229 150.465 229C150.614 229 150.764 229 150.914 229C151.064 229 151.214 229 151.365 229C151.516 229 151.666 229 151.818 229C151.969 229 152.12 229 152.272 229C152.424 229 152.576 229 152.728 229C152.88 229 153.033 229 153.186 229C153.339 229 153.492 229 153.645 229C153.799 229 153.952 229 154.106 229C154.26 229 154.415 229 154.569 229C154.724 229 154.879 229 155.034 229C155.189 229 155.344 229 155.5 229C155.655 229 155.811 229 155.967 229C156.124 229 156.28 229 156.437 229C156.593 229 156.75 229 156.907 229C157.065 229 157.222 229 157.38 229C157.538 229 157.696 229 157.854 229C158.012 229 158.171 229 158.329 229C158.488 229 158.647 229 158.806 229C158.966 229 159.125 229 159.285 229C159.445 229 159.605 229 159.765 229C159.925 229 160.086 229 160.246 229C160.407 229 160.568 229 160.729 229C160.891 229 161.052 229 161.214 229C161.375 229 161.537 229 161.7 229C161.862 229 162.024 229 162.187 229C162.349 229 162.512 229 162.675 229C162.839 229 163.002 229 163.166 229C163.329 229 163.493 229 163.657 229C163.821 229 163.985 229 164.15 229C164.314 229 164.479 229 164.644 229C164.809 229 164.974 229 165.14 229C165.305 229 165.471 229 165.636 229C165.802 229 165.968 229 166.135 229C166.301 229 166.467 229 166.634 229C166.801 229 166.968 229 167.135 229C167.302 229 167.469 229 167.637 229C167.804 229 167.972 229 168.14 229C168.308 229 168.476 229 168.644 229C168.813 229 168.981 229 169.15 229C169.319 229 169.488 229 169.657 229C169.826 229 169.996 229 170.165 229C170.335 229 170.505 229 170.675 229C170.844 229 171.015 229 171.185 229C171.355 229 171.526 229 171.697 229C171.867 229 172.038 229 172.209 229C172.38 229 172.552 229 172.723 229C172.895 229 173.066 229 173.238 229C173.41 229 173.582 229 173.754 229C173.927 229 174.099 229 174.272 229C174.444 229 174.617 229 174.79 229C174.963 229 175.136 229 175.309 229C175.482 229 175.656 229 175.829 229C176.003 229 176.177 229 176.351 229C176.525 229 176.699 229 176.873 229C177.047 229 177.222 229 177.397 229C177.571 229 177.746 229 177.921 229C178.096 229 178.271 229 178.446 229C178.621 229 178.797 229 178.972 229C179.148 229 179.324 229 179.5 229C179.676 229 179.852 229 180.028 229C180.204 229 180.38 229 180.557 229C180.733 229 180.91 229 181.087 229C181.264 229 181.441 229 181.618 229C181.795 229 181.972 229 182.149 229C182.327 229 182.504 229 182.682 229C182.86 229 183.037 229 183.215 229C183.393 229 183.571 229 183.75 229C183.928 229 184.106 229 184.285 229C184.463 229 184.642 229 184.821 229C184.999 229 185.178 229 185.357 229C185.536 229 185.715 229 185.895 229C186.074 229 186.253 229 186.433 229C186.612 229 186.792 229 186.972 229C187.151 229 187.331 229 187.511 229C187.691 229 187.871 229 188.052 229C188.232 229 188.412 229 188.593 229C188.773 229 188.954 229 189.134 229C189.315 229 189.496 229 189.677 229C189.858 229 190.039 229 190.22 229C190.401 229 190.582 229 190.763 229C190.945 229 191.126 229 191.308 229C191.489 229 191.671 229 191.853 229C192.034 229 192.216 229 192.398 229C192.58 229 192.762 229 192.944 229C193.126 229 193.309 229 193.491 229C193.673 229 193.856 229 194.038 229C194.221 229 194.403 229 194.586 229C194.769 229 194.951 229 195.134 229C195.317 229 195.5 229 195.683 229C195.866 229 196.049 229 196.232 229C196.416 229 196.599 229 196.782 229C196.966 229 197.149 229 197.333 229C197.516 229 197.7 229 197.883 229C198.067 229 198.251 229 198.434 229C198.618 229 198.802 229 198.986 229C199.17 229 199.354 229 199.538 229C199.722 229 199.906 229 200.09 229C200.275 229 200.459 229 200.643 229C200.828 229 201.012 229 201.196 229C201.381 229 201.565 229 201.75 229C201.935 229 202.119 229 202.304 229C202.489 229 202.673 229 202.858 229C203.043 229 203.228 229 203.413 229C203.598 229 203.782 229 203.967 229C204.152 229 204.337 229 204.523 229C204.708 229 204.893 229 205.078 229C205.263 229 205.448 229 205.634 229C205.819 229 206.004 229 206.189 229C206.375 229 206.56 229 206.746 229C206.931 229 207.116 229 207.302 229C207.487 229 207.673 229 207.858 229C208.044 229 208.23 229 208.415 229C208.601 229 208.786 229 208.972 229C209.158 229 209.343 229 209.529 229C209.715 229 209.901 229 210.086 229C210.272 229 210.458 229 210.644 229C210.829 229 211.015 229 211.201 229C211.387 229 211.573 229 211.759 229C211.944 229 212.13 229 212.316 229C212.502 229 212.688 229 212.874 229C213.06 229 213.246 229 213.432 229C213.618 229 213.804 229 213.99 229C214.175 229 214.361 229 214.547 229C214.733 229 214.919 229 215.105 229C215.291 229 215.477 229 215.663 229C215.849 229 216.035 229 216.221 229C216.407 229 216.593 229 216.779 229C216.965 229 217.151 229 217.336 229C217.522 229 217.708 229 217.894 229C218.08 229 218.266 229 218.452 229C218.638 229 218.824 229 219.009 229C219.195 229 219.381 229 219.567 229C219.753 229 219.938 229 220.124 229C220.31 229 220.496 229 220.681 229C220.867 229 221.053 229 221.239 229C221.424 229 221.61 229 221.796 229C221.981 229 222.167 229 222.352 229C222.538 229 222.723 229 222.909 229C223.094 229 223.28 229 223.465 229C223.651 229 223.836 229 224.021 229C224.207 229 224.392 229 224.577 229C224.763 229 224.948 229 225.133 229C225.318 229 225.503 229 225.689 229C225.874 229 226.059 229 226.244 229C226.429 229 226.614 229 226.799 229C226.984 229 227.169 229 227.353 229C227.538 229 227.723 229 227.908 229C228.092 229 228.277 229 228.462 229C228.646 229 228.831 229 229.015 229C229.2 229 229.384 229 229.569 229C229.753 229 229.937 229 230.121 229C230.306 229 230.49 229 230.674 229C230.858 229 231.042 229 231.226 229C231.41 229 231.594 229 231.778 229C231.962 229 232.145 229 232.329 229C232.513 229 232.697 229 232.88 229C233.064 229 233.247 229 233.43 229C233.614 229 233.797 229 233.98 229C234.164 229 234.347 229 234.53 229C234.713 229 234.896 229 235.079 229C235.262 229 235.445 229 235.627 229C235.81 229 235.993 229 236.175 229C236.358 229 236.54 229 236.723 229C236.905 229 237.087 229 237.27 229C237.452 229 237.634 229 237.816 229C237.998 229 238.18 229 238.362 229C238.543 229 238.725 229 238.907 229C239.088 229 239.27 229 239.451 229C239.633 229 239.814 229 239.995 229C240.176 229 240.357 229 240.538 229C240.719 229 240.9 229 241.081 229C241.262 229 241.442 229 241.623 229C241.803 229 241.984 229 242.164 229C242.344 229 242.524 229 242.705 229C242.885 229 243.065 229 243.244 229C243.424 229 243.604 229 243.783 229C243.963 229 244.143 229 244.322 229C244.501 229 244.68 229 244.859 229C245.039 229 245.218 229 245.396 229C245.575 229 245.754 229 245.932 229C246.111 229 246.289 229 246.468 229C246.646 229 246.824 229 247.002 229C247.18 229 247.358 229 247.536 229C247.714 229 247.891 229 248.069 229C248.246 229 248.423 229 248.601 229C248.778 229 248.955 229 249.132 229C249.309 229 249.485 229 249.662 229C249.839 229 250.015 229 250.191 229C250.368 229 250.544 229 250.72 229C250.896 229 251.072 229 251.247 229C251.423 229 251.598 229 251.774 229C251.949 229 252.124 229 252.299 229C252.474 229 252.649 229 252.824 229C252.999 229 253.173 229 253.348 229C253.522 229 253.696 229 253.87 229C254.044 229 254.218 229 254.392 229C254.566 229 254.739 229 254.913 229C255.086 229 255.259 229 255.432 229C255.605 229 255.778 229 255.951 229C256.124 229 256.296 229 256.468 229C256.641 229 256.813 229 256.985 229C257.157 229 257.329 229 257.5 229C257.672 229 257.843 229 258.014 229C258.186 229 258.357 229 258.527 229C258.698 229 258.869 229 259.039 229C259.21 229 259.38 229 259.55 229C259.72 229 259.89 229 260.06 229C260.23 229 260.399 229 260.568 229C260.738 229 260.907 229 261.076 229C261.245 229 261.413 229 261.582 229C261.75 229 261.919 229 262.087 229C262.255 229 262.423 229 262.59 229C262.758 229 262.925 229 263.093 229C263.26 229 263.427 229 263.594 229C263.761 229 263.927 229 264.094 229C264.26 229 264.426 229 264.592 229C264.758 229 264.924 229 265.089 229C265.255 229 265.42 229 265.585 229C265.75 229 265.915 229 266.08 229C266.245 229 266.409 229 266.573 229C266.737 229 266.901 229 267.065 229C267.229 229 267.392 229 267.555 229C267.719 229 267.882 229 268.045 229C268.207 229 268.37 229 268.532 229C268.695 229 268.857 229 269.019 229C269.18 229 269.342 229 269.503 229C269.665 229 269.826 229 269.987 229C270.148 229 270.308 229 270.469 229C270.629 229 270.789 229 270.949 229C271.109 229 271.269 229 271.428 229C271.588 229 271.747 229 271.906 229C272.065 229 272.223 229 272.382 229C272.54 229 272.698 229 272.856 229C273.014 229 273.172 229 273.329 229C273.486 229 273.643 229 273.8 229C273.957 229 274.114 229 274.27 229C274.426 229 274.582 229 274.738 229C274.894 229 275.049 229 275.205 229C275.36 229 275.515 229 275.669 229C275.824 229 275.979 229 276.133 229C276.287 229 276.441 229 276.594 229C276.748 229 276.901 229 277.054 229C277.207 229 277.36 229 277.513 229C277.665 229 277.817 229 277.969 229C278.121 229 278.273 229 278.424 229C278.576 229 278.727 229 278.877 229C279.028 229 279.179 229 279.329 229C279.479 229 279.629 229 279.779 229C279.928 229 280.077 229 280.227 229C280.376 229 280.524 229 280.673 229C280.821 229 280.969 229 281.117 229C281.265 229 281.412 229 281.56 229C281.707 229 281.854 229 282 229C282.147 229 282.293 229 282.439 229C282.585 229 282.731 229 282.876 229C283.022 229 283.167 229 283.312 229C283.456 229 283.601 229 283.745 229C283.889 229 284.033 229 284.176 229C284.32 229 284.463 229 284.606 229C284.749 229 284.891 229 285.034 229C285.176 229 285.318 229 285.459 229C285.601 229 285.742 229 285.883 229C286.024 229 286.165 229 286.305 229C286.445 229 286.585 229 286.725 229C286.864 229 287.004 229 287.143 229C287.282 229 287.42 229 287.559 229C287.697 229 287.835 229 287.972 229C288.11 229 288.247 229 288.384 229C288.521 229 288.658 229 288.794 229C288.93 229 289.066 229 289.202 229C289.337 229 289.472 229 289.607 229C289.742 229 289.877 229 290.011 229C290.145 229 290.279 229 290.412 229C290.546 229 290.679 229 290.811 229C290.944 229 291.077 229 291.209 229C291.341 229 291.472 229 291.604 229C291.735 229 291.866 229 291.997 229C292.127 229 292.257 229 292.387 229C292.517 229 292.647 229 292.776 229C292.905 229 293.034 229 293.162 229C293.291 229 293.419 229 293.546 229C293.674 229 293.801 229 293.928 229C294.055 229 294.182 229 294.308 229C294.434 229 294.56 229 294.685 229C294.811 229 294.936 229 295.06 229C295.185 229 295.309 229 295.433 229C295.557 229 295.68 229 295.804 229C295.927 229 296.049 229 296.172 229C296.294 229 296.416 229 296.538 229C296.659 229 296.78 229 296.901 229C297.022 229 297.142 229 297.262 229C297.382 229 297.502 229 297.621 229C297.74 229 297.859 229 297.978 229C298.096 229 298.214 229 298.332 229C298.449 229 298.566 229 298.683 229C298.8 229 298.916 229 299.032 229C299.148 229 299.264 229 299.379 229C299.494 229 299.609 229 299.723 229C299.838 229 299.952 229 300.065 229C300.179 229 300.292 229 300.404 229C300.517 229 300.629 229 300.741 229C300.853 229 300.964 229 301.075 229C301.186 229 301.297 229 301.407 229C301.517 229 301.627 229 301.736 229C301.846 229 301.955 229 302.063 229C302.172 229 302.28 229 302.387 229C302.495 229 302.602 229 302.709 229C302.815 229 302.922 229 303.028 229C303.134 229 303.239 229 303.344 229C303.449 229 303.553 229 303.658 229C303.762 229 303.865 229 303.969 229C304.072 229 304.175 229 304.277 229C304.379 229 304.481 229 304.583 229C304.684 229 304.785 229 304.886 229C304.986 229 305.086 229 305.186 229C305.286 229 305.385 229 305.484 229C305.582 229 305.681 229 305.779 229C305.876 229 305.974 229 306.071 229C306.168 229 306.264 229 306.36 229C306.456 229 306.552 229 306.647 229C306.742 229 306.836 229 306.931 229C307.025 229 307.118 229 307.212 229C307.305 229 307.397 229 307.49 229C307.582 229 307.674 229 307.765 229C307.856 229 307.947 229 308.038 229C308.128 229 308.218 229 308.307 229C308.397 229 308.486 229 308.574 229C308.663 229 308.751 229 308.838 229C308.926 229 309.013 229 309.099 229C309.186 229 309.272 229 309.357 229C309.443 229 309.528 229 309.613 229C309.697 229 309.781 229 309.865 229C309.948 229 310.031 229 310.114 229C310.197 229 310.279 229 310.36 229C310.442 229 310.523 229 310.604 229C310.684 229 310.765 229 310.844 229C310.924 229 311.003 229 311.082 229C311.16 229 311.238 229 311.316 229C311.393 229 311.471 229 311.547 229C311.624 229 311.7 229 311.775 229C311.851 229 311.926 229 312 229C312.075 229 312.149 229 312.223 229C312.296 229 312.369 229 312.442 229C312.514 229 312.586 229 312.657 229C312.729 229 312.8 229 312.87 229C312.941 229 313.01 229 313.08 229C313.149 229 313.218 229 313.286 229C313.354 229 313.422 229 313.49 229C313.557 229 313.623 229 313.69 229C313.756 229 313.821 229 313.887 229C313.952 229 314.016 229 314.08 229C314.144 229 314.208 229 314.271 229C314.334 229 314.396 229 314.458 229C314.52 229 314.581 229 314.642 229C314.703 229 314.763 229 314.823 229C314.882 229 314.941 229 315 229V220.5V212C314.941 212 314.882 212 314.823 212C314.763 212 314.703 212 314.642 212C314.581 212 314.52 212 314.458 212C314.396 212 314.334 212 314.271 212C314.208 212 314.144 212 314.08 212C314.016 212 313.952 212 313.887 212C313.821 212 313.756 212 313.69 212C313.623 212 313.557 212 313.49 212C313.422 212 313.354 212 313.286 212C313.218 212 313.149 212 313.08 212C313.01 212 312.941 212 312.87 212C312.8 212 312.729 212 312.657 212C312.586 212 312.514 212 312.442 212C312.369 212 312.296 212 312.223 212C312.149 212 312.075 212 312 212C311.926 212 311.851 212 311.775 212C311.7 212 311.624 212 311.547 212C311.471 212 311.393 212 311.316 212C311.238 212 311.16 212 311.082 212C311.003 212 310.924 212 310.844 212C310.765 212 310.684 212 310.604 212C310.523 212 310.442 212 310.36 212C310.279 212 310.197 212 310.114 212C310.031 212 309.948 212 309.865 212C309.781 212 309.697 212 309.613 212C309.528 212 309.443 212 309.357 212C309.272 212 309.186 212 309.099 212C309.013 212 308.926 212 308.838 212C308.751 212 308.663 212 308.574 212C308.486 212 308.397 212 308.307 212C308.218 212 308.128 212 308.038 212C307.947 212 307.856 212 307.765 212C307.674 212 307.582 212 307.49 212C307.397 212 307.305 212 307.212 212C307.118 212 307.025 212 306.931 212C306.836 212 306.742 212 306.647 212C306.552 212 306.456 212 306.36 212C306.264 212 306.168 212 306.071 212C305.974 212 305.876 212 305.779 212C305.681 212 305.582 212 305.484 212C305.385 212 305.286 212 305.186 212C305.086 212 304.986 212 304.886 212C304.785 212 304.684 212 304.583 212C304.481 212 304.379 212 304.277 212C304.175 212 304.072 212 303.969 212C303.865 212 303.762 212 303.658 212C303.553 212 303.449 212 303.344 212C303.239 212 303.134 212 303.028 212C302.922 212 302.815 212 302.709 212C302.602 212 302.495 212 302.387 212C302.28 212 302.172 212 302.063 212C301.955 212 301.846 212 301.736 212C301.627 212 301.517 212 301.407 212C301.297 212 301.186 212 301.075 212C300.964 212 300.853 212 300.741 212C300.629 212 300.517 212 300.404 212C300.292 212 300.179 212 300.065 212C299.952 212 299.838 212 299.723 212C299.609 212 299.494 212 299.379 212C299.264 212 299.148 212 299.032 212C298.916 212 298.8 212 298.683 212C298.566 212 298.449 212 298.332 212C298.214 212 298.096 212 297.978 212C297.859 212 297.74 212 297.621 212C297.502 212 297.382 212 297.262 212C297.142 212 297.022 212 296.901 212C296.78 212 296.659 212 296.538 212C296.416 212 296.294 212 296.172 212C296.049 212 295.927 212 295.804 212C295.68 212 295.557 212 295.433 212C295.309 212 295.185 212 295.06 212C294.936 212 294.811 212 294.685 212C294.56 212 294.434 212 294.308 212C294.182 212 294.055 212 293.928 212C293.801 212 293.674 212 293.546 212C293.419 212 293.291 212 293.162 212C293.034 212 292.905 212 292.776 212C292.647 212 292.517 212 292.387 212C292.257 212 292.127 212 291.997 212C291.866 212 291.735 212 291.604 212C291.472 212 291.341 212 291.209 212C291.077 212 290.944 212 290.811 212C290.679 212 290.546 212 290.412 212C290.279 212 290.145 212 290.011 212C289.877 212 289.742 212 289.607 212C289.472 212 289.337 212 289.202 212C289.066 212 288.93 212 288.794 212C288.658 212 288.521 212 288.384 212C288.247 212 288.11 212 287.972 212C287.835 212 287.697 212 287.559 212C287.42 212 287.282 212 287.143 212C287.004 212 286.864 212 286.725 212C286.585 212 286.445 212 286.305 212C286.165 212 286.024 212 285.883 212C285.742 212 285.601 212 285.459 212C285.318 212 285.176 212 285.034 212C284.891 212 284.749 212 284.606 212C284.463 212 284.32 212 284.176 212C284.033 212 283.889 212 283.745 212C283.601 212 283.456 212 283.312 212C283.167 212 283.022 212 282.876 212C282.731 212 282.585 212 282.439 212C282.293 212 282.147 212 282 212C281.854 212 281.707 212 281.56 212C281.412 212 281.265 212 281.117 212C280.969 212 280.821 212 280.673 212C280.524 212 280.376 212 280.227 212C280.077 212 279.928 212 279.779 212C279.629 212 279.479 212 279.329 212C279.179 212 279.028 212 278.877 212C278.727 212 278.576 212 278.424 212C278.273 212 278.121 212 277.969 212C277.817 212 277.665 212 277.513 212C277.36 212 277.207 212 277.054 212C276.901 212 276.748 212 276.594 212C276.441 212 276.287 212 276.133 212C275.979 212 275.824 212 275.669 212C275.515 212 275.36 212 275.205 212C275.049 212 274.894 212 274.738 212C274.582 212 274.426 212 274.27 212C274.114 212 273.957 212 273.8 212C273.643 212 273.486 212 273.329 212C273.172 212 273.014 212 272.856 212C272.698 212 272.54 212 272.382 212C272.223 212 272.065 212 271.906 212C271.747 212 271.588 212 271.428 212C271.269 212 271.109 212 270.949 212C270.789 212 270.629 212 270.469 212C270.308 212 270.148 212 269.987 212C269.826 212 269.665 212 269.503 212C269.342 212 269.18 212 269.019 212C268.857 212 268.695 212 268.532 212C268.37 212 268.207 212 268.045 212C267.882 212 267.719 212 267.555 212C267.392 212 267.229 212 267.065 212C266.901 212 266.737 212 266.573 212C266.409 212 266.245 212 266.08 212C265.915 212 265.75 212 265.585 212C265.42 212 265.255 212 265.089 212C264.924 212 264.758 212 264.592 212C264.426 212 264.26 212 264.094 212C263.927 212 263.761 212 263.594 212C263.427 212 263.26 212 263.093 212C262.925 212 262.758 212 262.59 212C262.423 212 262.255 212 262.087 212C261.919 212 261.75 212 261.582 212C261.413 212 261.245 212 261.076 212C260.907 212 260.738 212 260.568 212C260.399 212 260.23 212 260.06 212C259.89 212 259.72 212 259.55 212C259.38 212 259.21 212 259.039 212C258.869 212 258.698 212 258.527 212C258.357 212 258.186 212 258.014 212C257.843 212 257.672 212 257.5 212C257.329 212 257.157 212 256.985 212C256.813 212 256.641 212 256.468 212C256.296 212 256.124 212 255.951 212C255.778 212 255.605 212 255.432 212C255.259 212 255.086 212 254.913 212C254.739 212 254.566 212 254.392 212C254.218 212 254.044 212 253.87 212C253.696 212 253.522 212 253.348 212C253.173 212 252.999 212 252.824 212C252.649 212 252.474 212 252.299 212C252.124 212 251.949 212 251.774 212C251.598 212 251.423 212 251.247 212C251.072 212 250.896 212 250.72 212C250.544 212 250.368 212 250.191 212C250.015 212 249.839 212 249.662 212C249.485 212 249.309 212 249.132 212C248.955 212 248.778 212 248.601 212C248.423 212 248.246 212 248.069 212C247.891 212 247.714 212 247.536 212C247.358 212 247.18 212 247.002 212C246.824 212 246.646 212 246.468 212C246.289 212 246.111 212 245.932 212C245.754 212 245.575 212 245.396 212C245.218 212 245.039 212 244.859 212C244.68 212 244.501 212 244.322 212C244.143 212 243.963 212 243.783 212C243.604 212 243.424 212 243.244 212C243.065 212 242.885 212 242.705 212C242.524 212 242.344 212 242.164 212C241.984 212 241.803 212 241.623 212C241.442 212 241.262 212 241.081 212C240.9 212 240.719 212 240.538 212C240.357 212 240.176 212 239.995 212C239.814 212 239.633 212 239.451 212C239.27 212 239.088 212 238.907 212C238.725 212 238.543 212 238.362 212C238.18 212 237.998 212 237.816 212C237.634 212 237.452 212 237.27 212C237.087 212 236.905 212 236.723 212C236.54 212 236.358 212 236.175 212C235.993 212 235.81 212 235.627 212C235.445 212 235.262 212 235.079 212C234.896 212 234.713 212 234.53 212C234.347 212 234.164 212 233.98 212C233.797 212 233.614 212 233.43 212C233.247 212 233.064 212 232.88 212C232.697 212 232.513 212 232.329 212C232.145 212 231.962 212 231.778 212C231.594 212 231.41 212 231.226 212C231.042 212 230.858 212 230.674 212C230.49 212 230.306 212 230.121 212C229.937 212 229.753 212 229.569 212C229.384 212 229.2 212 229.015 212C228.831 212 228.646 212 228.462 212C228.277 212 228.092 212 227.908 212C227.723 212 227.538 212 227.353 212C227.169 212 226.984 212 226.799 212C226.614 212 226.429 212 226.244 212C226.059 212 225.874 212 225.689 212C225.503 212 225.318 212 225.133 212C224.948 212 224.763 212 224.577 212C224.392 212 224.207 212 224.021 212C223.836 212 223.651 212 223.465 212C223.28 212 223.094 212 222.909 212C222.723 212 222.538 212 222.352 212C222.167 212 221.981 212 221.796 212C221.61 212 221.424 212 221.239 212C221.053 212 220.867 212 220.681 212C220.496 212 220.31 212 220.124 212C219.938 212 219.753 212 219.567 212C219.381 212 219.195 212 219.009 212C218.824 212 218.638 212 218.452 212C218.266 212 218.08 212 217.894 212C217.708 212 217.522 212 217.336 212C217.151 212 216.965 212 216.779 212C216.593 212 216.407 212 216.221 212C216.035 212 215.849 212 215.663 212C215.477 212 215.291 212 215.105 212C214.919 212 214.733 212 214.547 212C214.361 212 214.175 212 213.99 212C213.804 212 213.618 212 213.432 212C213.246 212 213.06 212 212.874 212C212.688 212 212.502 212 212.316 212C212.13 212 211.944 212 211.759 212C211.573 212 211.387 212 211.201 212C211.015 212 210.829 212 210.644 212C210.458 212 210.272 212 210.086 212C209.901 212 209.715 212 209.529 212C209.343 212 209.158 212 208.972 212C208.786 212 208.601 212 208.415 212C208.23 212 208.044 212 207.858 212C207.673 212 207.487 212 207.302 212C207.116 212 206.931 212 206.746 212C206.56 212 206.375 212 206.189 212C206.004 212 205.819 212 205.634 212C205.448 212 205.263 212 205.078 212C204.893 212 204.708 212 204.523 212C204.337 212 204.152 212 203.967 212C203.782 212 203.598 212 203.413 212C203.228 212 203.043 212 202.858 212C202.673 212 202.489 212 202.304 212C202.119 212 201.935 212 201.75 212C201.565 212 201.381 212 201.196 212C201.012 212 200.828 212 200.643 212C200.459 212 200.275 212 200.09 212C199.906 212 199.722 212 199.538 212C199.354 212 199.17 212 198.986 212C198.802 212 198.618 212 198.434 212C198.251 212 198.067 212 197.883 212C197.7 212 197.516 212 197.333 212C197.149 212 196.966 212 196.782 212C196.599 212 196.416 212 196.232 212C196.049 212 195.866 212 195.683 212C195.5 212 195.317 212 195.134 212C194.951 212 194.769 212 194.586 212C194.403 212 194.221 212 194.038 212C193.856 212 193.673 212 193.491 212C193.309 212 193.126 212 192.944 212C192.762 212 192.58 212 192.398 212C192.216 212 192.034 212 191.853 212C191.671 212 191.489 212 191.308 212C191.126 212 190.945 212 190.763 212C190.582 212 190.401 212 190.22 212C190.039 212 189.858 212 189.677 212C189.496 212 189.315 212 189.134 212C188.954 212 188.773 212 188.593 212C188.412 212 188.232 212 188.052 212C187.871 212 187.691 212 187.511 212C187.331 212 187.151 212 186.972 212C186.792 212 186.612 212 186.433 212C186.253 212 186.074 212 185.895 212C185.715 212 185.536 212 185.357 212C185.178 212 184.999 212 184.821 212C184.642 212 184.463 212 184.285 212C184.106 212 183.928 212 183.75 212C183.571 212 183.393 212 183.215 212C183.037 212 182.86 212 182.682 212C182.504 212 182.327 212 182.149 212C181.972 212 181.795 212 181.618 212C181.441 212 181.264 212 181.087 212C180.91 212 180.733 212 180.557 212C180.38 212 180.204 212 180.028 212C179.852 212 179.676 212 179.5 212C179.324 212 179.148 212 178.972 212C178.797 212 178.621 212 178.446 212C178.271 212 178.096 212 177.921 212C177.746 212 177.571 212 177.397 212C177.222 212 177.047 212 176.873 212C176.699 212 176.525 212 176.351 212C176.177 212 176.003 212 175.829 212C175.656 212 175.482 212 175.309 212C175.136 212 174.963 212 174.79 212C174.617 212 174.444 212 174.272 212C174.099 212 173.927 212 173.754 212C173.582 212 173.41 212 173.238 212C173.066 212 172.895 212 172.723 212C172.552 212 172.38 212 172.209 212C172.038 212 171.867 212 171.697 212C171.526 212 171.355 212 171.185 212C171.015 212 170.844 212 170.675 212C170.505 212 170.335 212 170.165 212C169.996 212 169.826 212 169.657 212C169.488 212 169.319 212 169.15 212C168.981 212 168.813 212 168.644 212C168.476 212 168.308 212 168.14 212C167.972 212 167.804 212 167.637 212C167.469 212 167.302 212 167.135 212C166.968 212 166.801 212 166.634 212C166.467 212 166.301 212 166.135 212C165.968 212 165.802 212 165.636 212C165.471 212 165.305 212 165.14 212C164.974 212 164.809 212 164.644 212C164.479 212 164.314 212 164.15 212C163.985 212 163.821 212 163.657 212C163.493 212 163.329 212 163.166 212C163.002 212 162.839 212 162.675 212C162.512 212 162.349 212 162.187 212C162.024 212 161.862 212 161.7 212C161.537 212 161.375 212 161.214 212C161.052 212 160.891 212 160.729 212C160.568 212 160.407 212 160.246 212C160.086 212 159.925 212 159.765 212C159.605 212 159.445 212 159.285 212C159.125 212 158.966 212 158.806 212C158.647 212 158.488 212 158.329 212C158.171 212 158.012 212 157.854 212C157.696 212 157.538 212 157.38 212C157.222 212 157.065 212 156.907 212C156.75 212 156.593 212 156.437 212C156.28 212 156.124 212 155.967 212C155.811 212 155.655 212 155.5 212C155.344 212 155.189 212 155.034 212C154.879 212 154.724 212 154.569 212C154.415 212 154.26 212 154.106 212C153.952 212 153.799 212 153.645 212C153.492 212 153.339 212 153.186 212C153.033 212 152.88 212 152.728 212C152.576 212 152.424 212 152.272 212C152.12 212 151.969 212 151.818 212C151.666 212 151.516 212 151.365 212C151.214 212 151.064 212 150.914 212C150.764 212 150.614 212 150.465 212C150.315 212 150.166 212 150.017 212C149.869 212 149.72 212 149.572 212C149.424 212 149.276 212 149.128 212C148.98 212 148.833 212 148.686 212C148.539 212 148.392 212 148.246 212C148.099 212 147.953 212 147.807 212C147.661 212 147.516 212 147.371 212C147.226 212 147.081 212 146.936 212C146.792 212 146.647 212 146.503 212C146.359 212 146.216 212 146.072 212C145.929 212 145.786 212 145.643 212C145.501 212 145.358 212 145.216 212C145.074 212 144.933 212 144.791 212C144.65 212 144.509 212 144.368 212C144.227 212 144.087 212 143.947 212C143.807 212 143.667 212 143.528 212C143.388 212 143.249 212 143.11 212C142.972 212 142.833 212 142.695 212C142.557 212 142.419 212 142.282 212C142.145 212 142.007 212 141.871 212C141.734 212 141.598 212 141.462 212C141.326 212 141.19 212 141.055 212C140.919 212 140.784 212 140.65 212C140.515 212 140.381 212 140.247 212C140.113 212 139.979 212 139.846 212C139.713 212 139.58 212 139.447 212C139.315 212 139.182 212 139.051 212C138.919 212 138.787 212 138.656 212C138.525 212 138.394 212 138.264 212C138.134 212 138.004 212 137.874 212C137.744 212 137.615 212 137.486 212C137.357 212 137.229 212 137.1 212C136.972 212 136.844 212 136.717 212C136.59 212 136.463 212 136.336 212C136.209 212 136.083 212 135.957 212C135.831 212 135.705 212 135.58 212C135.455 212 135.33 212 135.206 212C135.081 212 134.957 212 134.834 212C134.71 212 134.587 212 134.464 212C134.341 212 134.218 212 134.096 212C133.974 212 133.853 212 133.731 212C133.61 212 133.489 212 133.368 212C133.248 212 133.128 212 133.008 212C132.888 212 132.769 212 132.65 212C132.531 212 132.412 212 132.294 212C132.176 212 132.058 212 131.941 212C131.824 212 131.707 212 131.59 212C131.473 212 131.357 212 131.242 212C131.126 212 131.011 212 130.896 212C130.781 212 130.666 212 130.552 212C130.438 212 130.324 212 130.211 212C130.098 212 129.985 212 129.872 212C129.76 212 129.648 212 129.536 212C129.425 212 129.314 212 129.203 212C129.092 212 128.982 212 128.872 212C128.762 212 128.652 212 128.543 212C128.434 212 128.326 212 128.218 212C128.109 212 128.002 212 127.894 212C127.787 212 127.68 212 127.573 212C127.467 212 127.361 212 127.255 212C127.15 212 127.045 212 126.94 212C126.835 212 126.731 212 126.627 212C126.523 212 126.42 212 126.317 212C126.214 212 126.111 212 126.009 212C125.907 212 125.805 212 125.704 212C125.603 212 125.502 212 125.402 212C125.302 212 125.202 212 125.103 212C125.003 212 124.904 212 124.806 212C124.707 212 124.609 212 124.512 212C124.414 212 124.317 212 124.22 212C124.124 212 124.028 212 123.932 212C123.836 212 123.741 212 123.646 212C123.551 212 123.457 212 123.363 212C123.269 212 123.176 212 123.083 212C122.99 212 122.898 212 122.806 212C122.714 212 122.622 212 122.531 212C122.44 212 122.349 212 122.259 212C122.169 212 122.08 212 121.991 212C121.901 212 121.813 212 121.725 212C121.636 212 121.549 212 121.462 212C121.374 212 121.288 212 121.201 212C121.115 212 121.029 212 120.944 212C120.859 212 120.774 212 120.69 212C120.606 212 120.522 212 120.438 212C120.355 212 120.272 212 120.19 212C120.108 212 120.026 212 119.945 212C119.863 212 119.782 212 119.702 212C119.622 212 119.542 212 119.463 212C119.383 212 119.305 212 119.226 212C119.148 212 119.07 212 118.993 212C118.916 212 118.839 212 118.762 212C118.686 212 118.61 212 118.535 212C118.46 212 118.385 212 118.311 212C118.237 212 118.163 212 118.09 212C118.017 212 117.944 212 117.872 212C117.8 212 117.728 212 117.657 212C117.586 212 117.515 212 117.445 212C117.375 212 117.305 212 117.236 212C117.167 212 117.099 212 117.031 212C116.963 212 116.895 212 116.829 212C116.762 212 116.695 212 116.629 212C116.564 212 116.498 212 116.433 212C116.369 212 116.304 212 116.241 212C116.177 212 116.114 212 116.051 212C115.989 212 115.927 212 115.865 212C115.803 212 115.742 212 115.682 212C115.622 212 115.562 212 115.502 212C115.443 212 115.384 212 115.326 212C115.268 212 115.21 212 115.153 212C115.096 212 115.039 212 114.983 212C114.927 212 114.871 212 114.816 212C114.761 212 114.707 212 114.653 212C114.599 212 114.546 212 114.493 212C114.441 212 114.389 212 114.337 212C114.285 212 114.234 212 114.184 212C114.134 212 114.084 212 114.034 212C113.985 212 113.936 212 113.888 212C113.84 212 113.792 212 113.745 212C113.698 212 113.652 212 113.606 212C113.56 212 113.515 212 113.47 212C113.425 212 113.381 212 113.338 212C113.294 212 113.251 212 113.209 212C113.166 212 113.125 212 113.083 212C113.042 212 113.001 212 112.961 212C112.921 212 112.882 212 112.843 212C112.804 212 112.766 212 112.728 212C112.69 212 112.653 212 112.617 212C112.58 212 112.544 212 112.509 212C112.474 212 112.439 212 112.405 212C112.371 212 112.337 212 112.304 212C112.272 212 112.239 212 112.208 212C112.176 212 112.145 212 112.114 212C112.084 212 112.054 212 112.025 212C111.995 212 111.967 212 111.939 212C111.91 212 111.883 212 111.856 212C111.829 212 111.803 212 111.778 212C111.752 212 111.727 212 111.703 212C111.678 212 111.654 212 111.631 212C111.608 212 111.586 212 111.564 212C111.542 212 111.521 212 111.5 212C111.479 212 111.459 212 111.44 212C111.421 212 111.402 212 111.384 212C111.366 212 111.348 212 111.331 212C111.314 212 111.298 212 111.283 212C111.267 212 111.252 212 111.238 212C111.223 212 111.21 212 111.197 212C111.184 212 111.171 212 111.16 212C111.148 212 111.137 212 111.126 212C111.116 212 111.106 212 111.097 212C111.088 212 111.079 212 111.071 212C111.063 212 111.056 212 111.049 212C111.043 212 111.037 212 111.032 212C111.026 212 111.022 212 111.018 212C111.014 212 111.011 212 111.008 212C111.005 212 111.003 212 111.002 212C111.001 212 111 212 111 220.5ZM315 220.5V229C348.766 229 397 200.072 397 142H388.5H380C380 188.928 341.234 212 315 212V220.5ZM388.5 142H397V129H388.5H380V142H388.5Z" fill="#415CF5"/>
<path d="M388.5 127C388.5 127 388.5 145 388.5 108.5C388.5 72 348.5 40.5 313 40.5C277.5 40.5 265.5 40.5 265.5 40.5" stroke="#F4B544" stroke-width="17"/>
<path d="M45.5 187C45.5 187 45.5 141.5 45.5 110.5C45.5 79.5 73.5 40.5 119.5 40.5C165.5 40.5 270.5 40.5 270.5 40.5" stroke="#E74D31" stroke-width="17"/>
<path d="M37 185.5V226L54 220.407V174.5L37 185.5Z" fill="#F4B544"/>
<path d="M313 32L266.5 32V49H270.5L313 32Z" fill="#E74D31"/>
<g class="dot1">
  <circle cx="144" cy="139" r="21" fill="#E74D31"/>
</g>
<g class="dot2">
  <circle cx="217" cy="139" r="21" fill="#F4B544"/>
</g>
<g class="dot3">
  <circle cx="290" cy="139" r="21" fill="#415CF5"/>
</g>
<path d="M380 140V148.5L397 146V129L380 140Z" fill="#415CF5"/>
<path d="M380 140V116.5L397 107V129L380 140Z" fill="#F4B544"/>
<path d="M37 261L46.5 254.5L48 266H37V261Z" fill="#415CF5"/>
</svg>
