<svg width="276" height="276" viewBox="0 0 276 276" fill="none" xmlns="http://www.w3.org/2000/svg">
<path d="M134.017 27.7441C151.366 25.6467 167.687 37.262 171.373 54.3311C175.418 73.0633 163.417 91.1492 145.017 94.958V119.745H209.247C217.881 119.745 226.192 123.682 232.33 129.615C238.466 135.547 242.555 143.598 242.555 151.97V180.097C256.07 182.91 266.592 193.583 269.182 207.134L269.302 207.802L269.303 207.804C272.591 227.247 258.646 245.667 238.583 247.424L238.584 247.425C222.029 248.898 206.614 237.964 202.587 221.855V221.854C197.765 202.776 209.93 184.029 228.715 180.15V152.023C228.715 147.614 226.333 143.011 222.604 139.469C218.881 135.931 214.006 133.636 209.299 133.636H145.015V180.097C158.751 182.956 169.342 193.937 171.708 207.801L171.709 207.804C174.94 226.907 161.617 244.931 142.181 247.312H142.178C124.828 249.409 108.508 237.794 104.822 220.725C100.777 201.993 112.778 183.907 131.178 180.098V133.636H66.8945C62.1873 133.636 57.3111 135.931 53.5879 139.469C49.8594 143.011 47.4775 147.614 47.4775 152.023V180.15C60.9932 182.964 71.4639 193.641 74.0508 207.188L74.1709 207.855L74.1719 207.857C77.4029 226.961 64.0804 244.985 44.6436 247.365L44.6406 247.366C27.291 249.464 10.971 237.848 7.28516 220.779C3.23987 202.047 15.2408 183.96 33.6406 180.151V152.023C33.6406 143.626 37.7297 135.575 43.8594 129.649C49.9908 123.722 58.2892 119.799 66.8955 119.799H131.18V94.959C117.443 92.099 106.852 81.1182 104.486 67.2549V67.2529C101.255 48.1496 114.578 30.1242 134.015 27.7441H134.017ZM137.629 193.196C126.673 193.474 117.923 202.444 117.923 213.419C117.923 224.566 127.006 233.647 138.152 233.647C149.297 233.647 158.378 224.569 158.382 213.425L158.372 212.903C158.048 201.985 149.119 193.189 138.152 193.189L137.629 193.196ZM235.636 193.189C224.489 193.19 215.407 202.272 215.407 213.419C215.407 224.566 224.489 233.647 235.636 233.647C246.786 233.647 255.865 224.618 255.865 213.419C255.865 202.22 246.785 193.189 235.636 193.189ZM40.5605 193.243C28.9111 193.243 19.5742 203.129 20.3818 214.941H20.3809C21.0773 224.719 28.9173 232.741 38.6748 233.614L39.1416 233.65L39.1455 233.651C50.9507 234.458 60.785 225.13 60.7891 213.479L60.7803 212.955C60.4556 201.989 51.5295 193.243 40.5605 193.243ZM139.513 41.46C127.705 40.6531 117.869 49.9846 117.869 61.6387C117.869 72.8373 126.948 81.867 138.098 81.8672C149.747 81.8672 159.084 71.9813 158.276 60.1689V60.168C157.568 50.236 149.489 42.1149 139.517 41.46H139.513Z" fill="black" stroke="black" stroke-width="3"/>
</svg>
