<svg viewBox="0 0 320 320" fill="none" xmlns="http://www.w3.org/2000/svg">
<path d="M154.534 14.0033C99.5307 13.5602 54.5362 57.6921 54.0047 112.724C53.4733 167.756 97.6707 212.774 152.674 213.306C153.294 213.306 153.914 213.306 154.534 213.306H187.305V175.998H154.534C120.168 176.441 92.0021 148.88 91.5592 114.496C91.1164 80.1125 118.662 51.9319 153.028 51.4888C153.471 51.4888 154.002 51.4888 154.445 51.4888C188.723 51.4888 216.8 79.4036 216.8 113.787V205.507C216.8 239.625 189.077 267.363 155.065 267.806C138.768 267.629 123.268 261.16 111.754 249.551L85.3592 275.87C103.694 294.303 128.494 304.76 154.445 305.026H155.774C210.068 304.228 253.734 260.185 254 205.862V111.218C252.671 57.1604 208.474 14.0919 154.534 14.0033Z" fill="currentColor"/>
</svg>
