<svg width="320" height="320" viewBox="0 0 320 320" fill="none" xmlns="http://www.w3.org/2000/svg">
<path d="M160.534 14.0033C105.531 13.5602 60.5362 57.6921 60.0047 112.724C59.4733 167.756 103.671 212.774 158.674 213.306C159.294 213.306 159.914 213.306 160.534 213.306H193.305V175.998H160.534C126.168 176.441 98.0021 148.88 97.5592 114.496C97.1164 80.1125 124.662 51.9319 159.028 51.4888C159.471 51.4888 160.002 51.4888 160.445 51.4888C194.723 51.4888 222.8 79.4036 222.8 113.787V205.507C222.8 239.625 195.077 267.363 161.065 267.806C144.768 267.629 129.268 261.16 117.754 249.551L91.3592 275.87C109.694 294.303 134.494 304.76 160.445 305.026H161.774C216.068 304.228 259.734 260.185 260 205.862V111.218C258.671 57.1604 214.474 14.0919 160.534 14.0033Z" fill="currentColor"/>
</svg>
